<?xml version="1.0" encoding="UTF-8"?>
<svg id="Camada_2" data-name="Camada 2" xmlns="http://www.w3.org/2000/svg" viewBox="0 0 490.73 74.21">
  <defs>
    <style>
      .cls-1 {
        fill: #fff;
      }

      .cls-2 {
        fill: #62b12f;
      }
    </style>
  </defs>
  <g id="Camada_1-2" data-name="Camada 1">
    <g>
      <path class="cls-2" d="m90.54,58.91l-1.84,8.04h-2.78s6.12-25.35,6.12-25.35h3.61l6.3,25.35h-2.96l-1.87-8.04h-6.59Zm6.02-2.47c-1.47-6.23-2.42-10.19-2.76-12.21h-.09c-.35,2.21-1.38,6.77-2.63,12.21h5.47Z"/>
      <path class="cls-2" d="m116.96,65.74c0,4.97-1.2,8.46-6.63,8.46-4.89,0-5.94-3.17-6.05-5.21h2.77c.07,1.04.69,2.89,3.38,2.89,3.18,0,3.83-2.32,3.83-6.13v-1.73c-.67,1.93-2.27,2.89-4.41,2.89-3.82,0-5.7-3.24-5.7-9.19,0-6.81,2.52-10,6.12-10,2.56,0,3.65,1.24,4,2.47-.01-.84.09-1.77.14-2.16h2.62c-.04.99-.05,2.91-.05,5.46v12.25Zm-10-8.08c0,4.59,1.26,6.83,3.61,6.83,2.93,0,3.73-2.89,3.73-7.3s-.61-7.06-3.5-7.06c-2.51,0-3.84,2.61-3.84,7.53Z"/>
      <path class="cls-2" d="m123.3,58c0,3.71.63,6.95,3.64,6.95s3.35-2.81,3.45-3.39h2.67c-.05.49-.58,5.74-6.15,5.74s-6.35-5.11-6.35-9.82c0-5.99,2.05-9.77,6.5-9.77,4.98,0,6.15,4.1,6.15,8.83,0,.36-.01.99-.05,1.46h-9.86Zm7.18-2.15c0-3.25-.69-5.8-3.45-5.8-3.46,0-3.63,4.5-3.68,5.8h7.13Z"/>
      <path class="cls-2" d="m136.68,53.88c0-3.87-.02-4.98-.04-5.85h2.64c.05.46.1,1.21.1,2.48.63-1.48,1.93-2.81,4.48-2.81,2.74,0,4.87,1.56,4.87,5.77v13.49h-2.75v-12.94c0-2.31-.76-3.88-2.91-3.88-2.55,0-3.64,1.68-3.64,5.56v11.26h-2.75v-13.07Z"/>
      <path class="cls-2" d="m150.87,48.03h2.67v-5.04h2.71v5.04h3.3v2.34h-3.3v12.42c0,1.3.28,2.11,1.71,2.11.45,0,.98-.02,1.33-.1v2.1c-.64.25-1.6.31-2.23.31-2.22,0-3.52-.91-3.52-3.89v-12.96h-2.67v-2.34Z"/>
      <path class="cls-2" d="m163.76,58c0,3.71.63,6.95,3.64,6.95s3.35-2.81,3.45-3.39h2.68c-.05.49-.58,5.74-6.15,5.74s-6.35-5.11-6.35-9.82c0-5.99,2.05-9.77,6.5-9.77,4.98,0,6.15,4.1,6.15,8.83,0,.36-.01.99-.05,1.46h-9.86Zm7.18-2.15c0-3.25-.69-5.8-3.45-5.8-3.46,0-3.63,4.5-3.68,5.8h7.13Z"/>
      <path class="cls-2" d="m196.08,40.38v21.71c0,1.83,0,3.74.04,4.86h-2.64c-.05-.49-.1-1.73-.1-2.54-.58,1.64-1.79,2.88-4.45,2.88-3.94,0-5.61-3.35-5.61-10,0-6.04,2.23-9.58,6.21-9.58,2.45,0,3.41,1.05,3.83,1.97v-9.31h2.73Zm-9.96,16.94c0,5.46,1.24,7.54,3.56,7.54,2.94,0,3.72-2.51,3.72-7.64,0-5.52-.77-7.08-3.51-7.08-2.25,0-3.77,1.98-3.77,7.19Z"/>
      <path class="cls-2" d="m202.34,58c0,3.71.63,6.95,3.64,6.95s3.35-2.81,3.45-3.39h2.68c-.05.49-.58,5.74-6.15,5.74s-6.35-5.11-6.35-9.82c0-5.99,2.05-9.77,6.5-9.77,4.98,0,6.15,4.1,6.15,8.83,0,.36-.01.99-.05,1.46h-9.86Zm7.18-2.15c0-3.25-.69-5.8-3.45-5.8-3.46,0-3.63,4.5-3.68,5.8h7.13Z"/>
      <path class="cls-2" d="m222.85,48.03h2.73v18.93h-2.73v-18.93Zm.01-7.65h2.73v3.91h-2.73v-3.91Z"/>
      <path class="cls-2" d="m230.09,53.88c0-3.87-.02-4.98-.04-5.85h2.64c.05.46.1,1.21.1,2.48.63-1.48,1.93-2.81,4.48-2.81,2.74,0,4.87,1.56,4.87,5.77v13.49h-2.75v-12.94c0-2.31-.76-3.88-2.91-3.88-2.55,0-3.64,1.68-3.64,5.56v11.26h-2.75v-13.07Z"/>
      <path class="cls-2" d="m247.3,48.03c1.55,6.13,3.43,13.53,3.81,15.85h.04c.25-2.09,3.09-11.99,4.01-15.85h2.75l-5.41,18.93h-2.96l-5.14-18.93h2.9Z"/>
      <path class="cls-2" d="m262.17,58c0,3.71.63,6.95,3.64,6.95s3.35-2.81,3.45-3.39h2.67c-.05.49-.58,5.74-6.15,5.74s-6.35-5.11-6.35-9.82c0-5.99,2.05-9.77,6.5-9.77,4.98,0,6.15,4.1,6.15,8.83,0,.36-.01.99-.05,1.46h-9.86Zm7.18-2.15c0-3.25-.69-5.8-3.45-5.8-3.46,0-3.63,4.5-3.68,5.8h7.13Z"/>
      <path class="cls-2" d="m277.1,61.5c.12,2.02,1.19,3.55,3.35,3.55s3.06-1.25,3.06-2.99c0-1.95-1-2.86-3.48-3.82-3.91-1.5-5.05-2.9-5.05-5.54s1.56-5,5.42-5c4.23,0,5.43,2.87,5.46,5.39h-2.67c-.05-.9-.25-3.15-2.87-3.15-1.79,0-2.61,1.11-2.61,2.61s.66,2.26,3.29,3.27c3.65,1.41,5.28,2.75,5.28,5.99,0,3.45-2.16,5.48-5.95,5.48s-5.83-2.35-5.93-5.79h2.71Z"/>
      <path class="cls-2" d="m287.57,48.03h2.67v-5.04h2.71v5.04h3.3v2.34h-3.3v12.42c0,1.3.28,2.11,1.71,2.11.45,0,.98-.02,1.33-.1v2.1c-.64.25-1.6.31-2.23.31-2.22,0-3.52-.91-3.52-3.89v-12.96h-2.67v-2.34Z"/>
      <path class="cls-2" d="m298.95,48.03h2.73v18.93h-2.73v-18.93Zm.01-7.65h2.73v3.91h-2.73v-3.91Z"/>
      <path class="cls-2" d="m306.2,53.7c0-3.36,0-4.78-.04-5.68h2.63c.07.55.1,1.55.1,2.42.75-1.65,2.09-2.73,4.23-2.73,1.98,0,3.35.85,3.92,2.82.68-1.52,2.12-2.82,4.58-2.82s4.58,1.14,4.58,5.5v13.74h-2.7v-13.27c0-1.91-.56-3.55-2.67-3.55-2.4,0-3.24,2.13-3.24,4.68v12.14h-2.72v-13.2c0-2.34-.78-3.61-2.63-3.61-2.26,0-3.32,2.06-3.32,4.93v11.87h-2.72v-13.25Z"/>
      <path class="cls-2" d="m332.48,58c0,3.71.63,6.95,3.64,6.95s3.35-2.81,3.45-3.39h2.67c-.05.49-.58,5.74-6.15,5.74s-6.35-5.11-6.35-9.82c0-5.99,2.05-9.77,6.5-9.77,4.98,0,6.15,4.1,6.15,8.83,0,.36-.01.99-.05,1.46h-9.86Zm7.18-2.15c0-3.25-.69-5.8-3.45-5.8-3.46,0-3.63,4.5-3.68,5.8h7.13Z"/>
      <path class="cls-2" d="m345.86,53.88c0-3.87-.02-4.98-.04-5.85h2.64c.05.46.1,1.21.1,2.48.63-1.48,1.93-2.81,4.48-2.81,2.74,0,4.87,1.56,4.87,5.77v13.49h-2.75v-12.94c0-2.31-.76-3.88-2.91-3.88-2.55,0-3.64,1.68-3.64,5.56v11.26h-2.75v-13.07Z"/>
      <path class="cls-2" d="m360.05,48.03h2.67v-5.04h2.71v5.04h3.3v2.34h-3.3v12.42c0,1.3.28,2.11,1.71,2.11.45,0,.98-.02,1.33-.1v2.1c-.64.25-1.6.31-2.23.31-2.22,0-3.52-.91-3.52-3.89v-12.96h-2.67v-2.34Z"/>
      <path class="cls-2" d="m383.22,57.27c0,6.66-2.24,10.03-6.51,10.03s-6.51-3.25-6.51-9.97,2.56-9.62,6.63-9.62,6.4,3.2,6.4,9.55Zm-10.23.07c0,5.15,1.28,7.59,3.75,7.59s3.69-2.48,3.69-7.61c0-4.84-1.2-7.23-3.71-7.23s-3.73,2.12-3.73,7.25Z"/>
      <path class="cls-2" d="m388.28,61.5c.12,2.02,1.19,3.55,3.35,3.55s3.06-1.25,3.06-2.99c0-1.95-1-2.86-3.49-3.82-3.91-1.5-5.05-2.9-5.05-5.54s1.56-5,5.42-5c4.23,0,5.43,2.87,5.46,5.39h-2.68c-.05-.9-.25-3.15-2.87-3.15-1.79,0-2.61,1.11-2.61,2.61s.66,2.26,3.29,3.27c3.65,1.41,5.28,2.75,5.28,5.99,0,3.45-2.16,5.48-5.95,5.48s-5.83-2.35-5.93-5.79h2.71Z"/>
    </g>
    <g>
      <path class="cls-1" d="m0,0h12.52l10.31,23.71L33.15,0h12.52v33.36h-8.21V9.44l-10.42,23.91h-8.42L8.21,9.44v23.91H0V0Z"/>
      <path class="cls-1" d="m61.99,0h10.88l14.78,33.36h-8.93l-11.29-25.5-11.29,25.5h-8.93L61.99,0Z"/>
      <path class="cls-1" d="m102.53,33.36c-8.62,0-14.37-5.75-14.37-14.37v-4.62c0-8.62,5.75-14.37,14.37-14.37h21.04v7.7h-21.04c-3.7,0-6.16,2.67-6.16,6.67v4.62c0,4,2.46,6.67,6.16,6.67h14.88v-5.13h-12.83v-7.7h15.91c3.08,0,5.13,2.05,5.13,5.13v10.26c0,3.08-2.05,5.13-5.13,5.13h-17.96Z"/>
      <path class="cls-1" d="m129.73,0h15.09l12.62,28.99V0h8.21v33.36h-14.73l-12.98-29.81v29.81h-8.21V0Z"/>
      <path class="cls-1" d="m169.75,14.37c0-8.62,5.75-14.37,14.37-14.37h10.78c8.62,0,14.37,5.75,14.37,14.37v4.62c0,8.62-5.75,14.37-14.37,14.37h-10.78c-8.62,0-14.37-5.75-14.37-14.37v-4.62Zm14.37,11.29h10.78c3.69,0,6.16-2.67,6.16-6.67v-4.62c0-4-2.46-6.67-6.16-6.67h-10.78c-3.7,0-6.16,2.67-6.16,6.67v4.62c0,4,2.46,6.67,6.16,6.67Z"/>
      <path class="cls-1" d="m226.56,25.66h22.07c2.92,0,3.9-.92,3.9-2.57s-.98-2.57-3.9-2.57h-11.55c-7.7,0-11.39-4.67-11.39-10.57s3.69-9.96,11.6-9.96h21.55v7.7h-21.55c-2.92,0-3.9.87-3.9,2.57s.97,2.57,3.9,2.57h11.55c7.7,0,11.39,4.67,11.39,10.57s-3.7,9.96-11.6,9.96h-22.07v-7.7Z"/>
      <path class="cls-1" d="m264.33,0h8.21v33.36h-8.21V0Z"/>
      <path class="cls-1" d="m276.64,14.37c0-8.62,5.75-14.37,14.37-14.37h10.78c8.62,0,14.37,5.75,14.37,14.37v4.62c0,7.39-4.21,12.67-10.88,14.01l1.54,6.83h-8.21l-1.44-6.47h-6.16c-8.62,0-14.37-5.75-14.37-14.37v-4.62Zm14.37,11.29h4.46l-1.9-8.42h8.21l1.8,8.16c2.67-.72,4.36-3.13,4.36-6.41v-4.62c0-4-2.46-6.67-6.16-6.67h-10.78c-3.7,0-6.16,2.67-6.16,6.67v4.62c0,4,2.46,6.67,6.16,6.67Z"/>
      <path class="cls-1" d="m358.23,18.99c0,8.62-5.75,14.37-14.37,14.37h-10.26c-8.62,0-14.37-5.75-14.37-14.37V0h8.21v18.99c0,4,2.46,6.67,6.16,6.67h10.26c3.7,0,6.16-2.67,6.16-6.67V0h8.21v18.99Z"/>
      <path class="cls-1" d="m396.41,33.36h-34.07V0h34.07v7.7h-25.86v5.13h23.81v7.7h-23.81v5.13h25.86v7.7Z"/>
      <path class="cls-1" d="m400.52,0h8.21v33.36h-8.21V0Z"/>
      <path class="cls-1" d="m413.86,0h25.3c5.85,0,10.62,4.46,10.62,11.19,0,6-3.75,10.16-8.62,11.08l7.8,11.08h-10.01l-7.7-10.93h-9.19v10.93h-8.21V0Zm22.73,14.73c3.39,0,4.98-1.39,4.98-3.54s-1.59-3.49-4.98-3.49h-14.52v7.03h14.52Z"/>
      <path class="cls-1" d="m465.07,0h10.88l14.78,33.36h-8.93l-11.29-25.5-11.29,25.5h-8.93L465.07,0Z"/>
    </g>
  </g>
</svg>