<?xml version="1.0" encoding="UTF-8"?>
<svg id="Camada_2" data-name="Camada 2" xmlns="http://www.w3.org/2000/svg" viewBox="0 0 51.67 51.67">
  <defs>
    <style>
      .cls-1 {
        fill: #62b12f;
      }
    </style>
  </defs>
  <g id="Camada_1-2" data-name="Camada 1">
    <path class="cls-1" d="m42.51,12.03c0,1.66-1.34,2.99-2.99,2.99s-2.99-1.35-2.99-2.99,1.35-2.99,2.99-2.99,2.99,1.35,2.99,2.99Zm-3.73,13.44c0,6.94-5.65,12.59-12.59,12.59s-12.59-5.65-12.59-12.59,5.65-12.59,12.59-12.59,12.59,5.65,12.59,12.59Zm-4.53,0c0-4.45-3.62-8.07-8.07-8.07s-8.07,3.62-8.07,8.07,3.62,8.07,8.07,8.07,8.07-3.62,8.07-8.07Zm17.42-10.11c0-8.48-6.88-15.36-15.36-15.36H15.36C6.88,0,0,6.88,0,15.36v20.96c0,8.48,6.88,15.36,15.36,15.36h20.95c8.48,0,15.36-6.88,15.36-15.36V15.36Zm-5.05,20.73c0,5.82-4.73,10.55-10.55,10.55H15.57c-5.82,0-10.55-4.73-10.55-10.55V15.59c0-5.82,4.73-10.55,10.55-10.55h20.5c5.82,0,10.55,4.73,10.55,10.55v20.5Z"/>
  </g>
</svg>