<?xml version="1.0" encoding="UTF-8"?>
<svg id="Camada_2" data-name="Camada 2" xmlns="http://www.w3.org/2000/svg" viewBox="0 0 120 55">
  <defs>
    <style>
      .cls-1 {
        fill: #fff;
      }

      .cls-2 {
        fill: #62b12f;
      }
    </style>
  </defs>
  <g id="Camada_1-2" data-name="Camada 1">
    <rect class="cls-2" width="120" height="55"/>
    <g>
      <path class="cls-1" d="m42.49,17.48l-7.14,9.14-7.13-9.14h-8.92v18.28h7.13v-9.75l7.14,9.75h3.56l7.15-9.75v9.75h7.13v-18.28h-8.91Z"/>
      <path class="cls-1" d="m66.36,28.85h5.74c-1.08,1.38-2.87,1.55-5.69,1.55-2.93-.04-5.4-.56-5.36-3.56v-.45c-.04-2.98,2.43-3.52,5.36-3.56,1.05,0,2,.12,2.84.33.84.22,1.49.62,1.94,1.24h7.58c-.81-5.63-6.02-7.36-12.36-7.36-6.89.02-12.52,2-12.49,8.92v1.34c-.03,6.91,5.6,8.9,12.49,8.92,3.1,0,6.32-.75,8.44-2.84l.36,2.84h3.56v-10.49h-12.42v3.13Z"/>
      <path class="cls-1" d="m99.86,17.48v9.68l-8.03-9.68h-9.81v18.28h7.13v-11.17l9.83,11.17h8.02v-18.28h-7.14Z"/>
    </g>
  </g>
</svg>