<?xml version="1.0" encoding="UTF-8"?>
<svg id="Camada_2" data-name="Camada 2" xmlns="http://www.w3.org/2000/svg" viewBox="0 0 51.67 51.67">
  <defs>
    <style>
      .cls-1 {
        fill: #62b12f;
        fill-rule: evenodd;
      }
    </style>
  </defs>
  <g id="Camada_1-2" data-name="Camada 1">
    <path class="cls-1" d="m.91,24.78l11.91,5.1,4.61,17.02c.29,1.09,1.46,1.49,2.23.77l6.64-6.21c.7-.65,1.69-.68,2.41-.08l11.97,9.98c.82.69,1.99.17,2.2-.97L51.64,1.94c.23-1.25-.84-2.29-1.88-1.83L.9,21.76c-1.21.53-1.2,2.49.01,3.02Zm15.77,2.39l23.27-16.46c.42-.29.85.35.49.74l-19.2,20.5c-.68.72-1.11,1.69-1.23,2.74l-.65,5.57c-.09.74-1,.82-1.17.1l-2.52-10.15c-.29-1.16.13-2.4,1.02-3.03Z"/>
  </g>
</svg>