<?xml version="1.0" encoding="UTF-8"?>
<svg id="Camada_2" data-name="Camada 2" xmlns="http://www.w3.org/2000/svg" viewBox="0 0 51.67 51.67">
  <defs>
    <style>
      .cls-1 {
        fill: #62b12f;
      }
    </style>
  </defs>
  <g id="Camada_1-2" data-name="Camada 1">
    <g>
      <path class="cls-1" d="m25.91,0C11.65,0,.08,11.55.08,25.8c0,4.62,1.23,9.09,3.55,13.01l-3.62,12.86,13.27-3.39c3.86,2.16,8.18,3.23,12.65,3.23,14.19,0,25.76-11.55,25.76-25.72S40.1,0,25.91,0Zm0,47.21c-3.93,0-7.79-1.15-11.18-3.16l-.77-.46-7.64,1.93,2.08-7.39-.54-.77c-2.24-3.47-3.39-7.47-3.39-11.55C4.47,13.94,14.11,4.39,25.91,4.39s21.44,9.55,21.44,21.41-9.64,21.41-21.44,21.41Z"/>
      <path class="cls-1" d="m30.37,37.77c2.52.71,4.51.23,6.04-.75,1.21-.78,2.05-2.02,2.35-3.43l.27-1.25c.08-.4-.12-.8-.49-.97l-5.66-2.6c-.37-.17-.8-.06-1.05.26l-2.22,2.88c-.17.22-.46.3-.71.21-1.52-.53-6.62-2.67-9.41-8.04-.12-.23-.09-.52.08-.72l2.12-2.45c.22-.25.27-.6.14-.91l-2.44-5.7c-.13-.3-.42-.51-.75-.52l-1.67-.09c-.53-.03-1.04.15-1.44.49-.81.7-2.11,2.06-2.51,3.84-.59,2.64.32,5.88,2.7,9.12,2.38,3.24,6.81,8.42,14.65,10.63Z"/>
    </g>
  </g>
</svg>